<svg xmlns="http://www.w3.org/2000/svg" width="512" height="512" viewBox="0 0 512 512">
  <rect width="512" height="512" rx="112" fill="#D97757"/>
  <!-- paper sheet (within maskable safe zone) -->
  <rect x="150" y="100" width="212" height="300" rx="22" fill="#F8F6F0"/>
  <!-- folded corner accent -->
  <path d="M150 360 v18 a22 22 0 0 0 22 22 h18 z" fill="#ECE7DB"/>
  <!-- text lines -->
  <rect x="182" y="146" width="148" height="14" rx="7" fill="#D8D2C4"/>
  <rect x="182" y="182" width="164" height="14" rx="7" fill="#D8D2C4"/>
  <rect x="182" y="218" width="116" height="14" rx="7" fill="#D8D2C4"/>
  <!-- signature scribble -->
  <path d="M180 322 c16 -34 30 -32 42 -6 c8 18 18 16 28 -8 c10 -24 24 -20 36 4 c8 16 22 12 34 -8"
        fill="none" stroke="#2B2A27" stroke-width="10" stroke-linecap="round" stroke-linejoin="round"/>
  <!-- signature baseline -->
  <rect x="182" y="352" width="164" height="9" rx="4.5" fill="#D97757"/>
</svg>
